<svg xmlns="http://www.w3.org/2000/svg" width="41.924" height="22.525" viewBox="0 0 41.924 22.525">
  <g id="Grupo_5783" data-name="Grupo 5783" transform="translate(-1161.686 -654.746)">
    <path id="Caminho_5084" data-name="Caminho 5084" d="M1169.6,670.288q1.077,1.252,2.217,2.423a15.134,15.134,0,0,0,21.655,0q1.139-1.171,2.217-2.423a53.84,53.84,0,0,0,7.664-11.685,2.516,2.516,0,0,0-1.871-3.586,22.48,22.48,0,0,0-3.5-.271c-6.337,0-11.339,3.366-15.337,7.155-4-3.789-9-7.152-15.337-7.155a22.484,22.484,0,0,0-3.5.271,2.515,2.515,0,0,0-1.87,3.586A53.831,53.831,0,0,0,1169.6,670.288Z" fill="#db0047"/>
  </g>
</svg>
