<svg xmlns="http://www.w3.org/2000/svg" width="51.307" height="17.323" viewBox="0 0 51.307 17.323">
  <g id="Grupo_5786" data-name="Grupo 5786" transform="translate(-501.495 -1488.364)">
    <path id="Caminho_5085" data-name="Caminho 5085" d="M1376.616,360.683q-.517.445-1,.916a6.253,6.253,0,0,0,0,8.948q.484.471,1,.916a22.231,22.231,0,0,0,4.828,3.166,1.04,1.04,0,0,0,1.482-.773,8.433,8.433,0,0,0-2.844-7.784,8.432,8.432,0,0,0,2.844-7.783,1.04,1.04,0,0,0-1.482-.773A22.235,22.235,0,0,0,1376.616,360.683Z" transform="translate(1884.533 1863.098) rotate(180)" fill="#db0047"/>
    <path id="Caminho_5086" data-name="Caminho 5086" d="M1376.616,360.683q-.517.445-1,.916a6.253,6.253,0,0,0,0,8.948q.484.471,1,.916a22.231,22.231,0,0,0,4.828,3.166,1.04,1.04,0,0,0,1.482-.773,8.433,8.433,0,0,0-2.844-7.784,8.432,8.432,0,0,0,2.844-7.783,1.04,1.04,0,0,0-1.482-.773A22.235,22.235,0,0,0,1376.616,360.683Z" transform="translate(1905.533 1863.098) rotate(180)" fill="#db0047"/>
    <path id="Caminho_5087" data-name="Caminho 5087" d="M1376.616,360.683q-.517.445-1,.916a6.253,6.253,0,0,0,0,8.948q.484.471,1,.916a22.231,22.231,0,0,0,4.828,3.166,1.04,1.04,0,0,0,1.482-.773,8.433,8.433,0,0,0-2.844-7.784,8.432,8.432,0,0,0,2.844-7.783,1.04,1.04,0,0,0-1.482-.773A22.235,22.235,0,0,0,1376.616,360.683Z" transform="translate(1926.533 1863.098) rotate(180)" fill="#db0047"/>
  </g>
</svg>
