<svg xmlns="http://www.w3.org/2000/svg" width="21.112" height="23.534" viewBox="0 0 21.112 23.534">
  <g id="Grupo_5863" data-name="Grupo 5863" transform="translate(-45.568 -1386.109)">
    <path id="Retângulo_1638" data-name="Retângulo 1638" d="M0,0H6.106a0,0,0,0,1,0,0V3.123a2.5,2.5,0,0,1-2.5,2.5H2.5A2.5,2.5,0,0,1,0,3.123V0A0,0,0,0,1,0,0Z" transform="translate(53.071 1404.018)" fill="#ffe34c"/>
    <circle id="Elipse_69" data-name="Elipse 69" cx="6.385" cy="6.385" r="6.385" transform="translate(49.739 1392.78)" fill="#ffe34c"/>
    <path id="Caminho_3696" data-name="Caminho 3696" d="M4311.47,8165.618q.173.2.354.389a2.427,2.427,0,0,0,3.474,0q.185-.187.356-.389a8.63,8.63,0,0,0,1.229-1.875.4.4,0,0,0-.3-.575,3.649,3.649,0,0,0-.561-.043,3.212,3.212,0,0,1-4.921,0,3.672,3.672,0,0,0-.562.043.4.4,0,0,0-.3.575A8.634,8.634,0,0,0,4311.47,8165.618Z" transform="translate(-4257.438 -6777.016)" fill="#fff"/>
    <path id="Caminho_3697" data-name="Caminho 3697" d="M4330.419,8171.185c-.014.177-.021.353-.024.526a2.43,2.43,0,0,0,2.457,2.458c.174,0,.35-.012.526-.024a8.646,8.646,0,0,0,2.194-.456.4.4,0,0,0,.2-.619,3.77,3.77,0,0,0-.366-.428,3.213,3.213,0,0,1-3.48-3.48,3.5,3.5,0,0,0-.428-.365.4.4,0,0,0-.618.2A8.564,8.564,0,0,0,4330.419,8171.185Z" transform="translate(-4269.165 -6780.264)" fill="#fff"/>
    <path id="Caminho_3698" data-name="Caminho 3698" d="M4298.472,8171.185c.014.177.021.353.023.526a2.429,2.429,0,0,1-2.456,2.458c-.175,0-.351-.012-.526-.024a8.662,8.662,0,0,1-2.2-.456.4.4,0,0,1-.194-.619,3.873,3.873,0,0,0,3.846-3.908,3.65,3.65,0,0,1,.428-.365.4.4,0,0,1,.619.2A8.647,8.647,0,0,1,4298.472,8171.185Z" transform="translate(-4247.478 -6780.264)" fill="#fff"/>
  </g>
</svg>
