<svg xmlns="http://www.w3.org/2000/svg" width="28.929" height="32.247" viewBox="0 0 28.929 32.247">
  <g id="Grupo_5863" data-name="Grupo 5863" transform="translate(-496 -1025.001)">
    <path id="Retângulo_1638" data-name="Retângulo 1638" d="M0,0H8.366a0,0,0,0,1,0,0V5.205a2.5,2.5,0,0,1-2.5,2.5H2.5A2.5,2.5,0,0,1,0,5.205V0A0,0,0,0,1,0,0Z" transform="translate(506.281 1049.541)" fill="#ffe34c"/>
    <g id="Grupo_4771" data-name="Grupo 4771" transform="translate(501.715 1034.142)">
      <circle id="Elipse_69" data-name="Elipse 69" cx="8.749" cy="8.749" r="8.749" fill="#ffe34c"/>
    </g>
    <g id="Grupo_4773" data-name="Grupo 4773" transform="translate(505.856 1025.001)">
      <path id="Caminho_3696" data-name="Caminho 3696" d="M4311.939,8166.541c.158.184.32.36.487.532a3.326,3.326,0,0,0,4.76,0c.167-.172.33-.349.487-.532a11.859,11.859,0,0,0,1.685-2.569.553.553,0,0,0-.412-.788,5.3,5.3,0,0,1-7.512-.06,5,5,0,0,0-.77.06.553.553,0,0,0-.411.788A11.839,11.839,0,0,0,4311.939,8166.541Z" transform="translate(-4310.199 -8163.124)" fill="#fff"/>
    </g>
    <g id="Grupo_4774" data-name="Grupo 4774" transform="translate(517.46 1028.215)">
      <path id="Caminho_3697" data-name="Caminho 3697" d="M4330.427,8172.1c-.019.241-.029.482-.032.721a3.327,3.327,0,0,0,3.366,3.367c.24,0,.479-.015.721-.032a11.888,11.888,0,0,0,3.008-.625.554.554,0,0,0,.267-.849,5.306,5.306,0,0,1-5.271-5.354,5.1,5.1,0,0,0-.586-.5.553.553,0,0,0-.848.268A11.813,11.813,0,0,0,4330.427,8172.1Z" transform="translate(-4330.395 -8168.718)" fill="#fff"/>
    </g>
    <g id="Grupo_4775" data-name="Grupo 4775" transform="translate(496 1028.215)">
      <path id="Caminho_3698" data-name="Caminho 3698" d="M4300.481,8172.1c.019.241.029.482.032.721a3.328,3.328,0,0,1-3.366,3.367q-.36-.006-.722-.032a11.889,11.889,0,0,1-3.008-.625.554.554,0,0,1-.267-.849,5.305,5.305,0,0,0,5.27-5.354,5.144,5.144,0,0,1,.586-.5.553.553,0,0,1,.848.268A11.813,11.813,0,0,1,4300.481,8172.1Z" transform="translate(-4293.045 -8168.718)" fill="#fff"/>
    </g>
  </g>
</svg>
