<svg xmlns="http://www.w3.org/2000/svg" width="6.705" height="12.48" viewBox="0 0 6.705 12.48">
  <g id="Grupo_4735" data-name="Grupo 4735" transform="translate(-1410.018 -438.249)">
    <path id="Caminho_3673" data-name="Caminho 3673" d="M1414.644,448.372q.373-.32.721-.66a4.5,4.5,0,0,0,0-6.446q-.348-.339-.721-.66a16.017,16.017,0,0,0-3.478-2.281.749.749,0,0,0-1.067.557,6.071,6.071,0,0,0,2.049,5.607,6.071,6.071,0,0,0-2.049,5.607.749.749,0,0,0,1.067.557A16.02,16.02,0,0,0,1414.644,448.372Z" fill="#fff757"/>
  </g>
</svg>
