<svg xmlns="http://www.w3.org/2000/svg" width="28.228" height="25.405" viewBox="0 0 28.228 25.405">
  <path id="Caminho_3785" data-name="Caminho 3785" d="M1228.355,234.524h-1.411v-7.057h-16.937v7.057H1208.6a4.228,4.228,0,0,0-4.234,4.234v8.469h5.646v5.646h16.937v-5.646h5.646v-8.469A4.229,4.229,0,0,0,1228.355,234.524Zm-15.525-4.234h11.291v4.234H1212.83Zm11.291,16.937v2.823H1212.83V244.4h11.291Zm2.823-2.823v-2.823h-16.937V244.4h-2.823v-5.646a1.415,1.415,0,0,1,1.411-1.411h19.76a1.416,1.416,0,0,1,1.412,1.411V244.4Z" transform="translate(-1204.362 -227.467)" fill="#db0047"/>
</svg>
