<svg xmlns="http://www.w3.org/2000/svg" width="33.874" height="23.994" viewBox="0 0 33.874 23.994">
  <path id="Caminho_3786" data-name="Caminho 3786" d="M1145.294,249.938a2.819,2.819,0,0,0,2.808-2.822l.014-15.525a2.831,2.831,0,0,0-2.822-2.823h-22.583a2.831,2.831,0,0,0-2.823,2.823v15.525a2.831,2.831,0,0,0,2.823,2.822h-5.646a2.831,2.831,0,0,0,2.823,2.823h28.228a2.831,2.831,0,0,0,2.823-2.823Zm-22.583-18.348h22.583v15.525h-22.583ZM1134,251.35a1.412,1.412,0,1,1,1.412-1.412A1.416,1.416,0,0,1,1134,251.35Z" transform="translate(-1117.066 -228.767)" fill="#db0047"/>
</svg>
